<?xml version="1.0" standalone="no"?>
<!DOCTYPE svg PUBLIC "-//W3C//DTD SVG 20010904//EN"
 "http://www.w3.org/TR/2001/REC-SVG-20010904/DTD/svg10.dtd">
<svg version="1.0" xmlns="http://www.w3.org/2000/svg"
 width="500.000000pt" height="500.000000pt" viewBox="0 0 500.000000 500.000000"
 preserveAspectRatio="xMidYMid meet">
<metadata>
Created by potrace 1.11, written by Peter Selinger 2001-2013
</metadata>
<g transform="translate(0.000000,500.000000) scale(0.100000,-0.100000)"
fill="#000000" stroke="none">
<path d="M0 2500 l0 -2500 2500 0 2500 0 0 2500 0 2500 -2500 0 -2500 0 0
-2500z m1765 859 c335 -41 577 -202 696 -464 61 -135 74 -210 73 -430 0 -184
-2 -208 -27 -298 -81 -302 -278 -508 -572 -600 -128 -40 -229 -47 -687 -47
l-428 0 0 925 0 925 428 0 c250 0 464 -5 517 -11z m1730 -354 c85 -22 156 -59
215 -112 59 -53 116 -131 104 -143 -11 -10 -413 -160 -430 -160 -6 0 -14 7
-17 15 -4 8 -25 28 -48 45 -97 70 -234 9 -215 -96 7 -35 53 -81 89 -88 66 -14
114 -15 208 -6 144 14 325 14 384 -1 156 -38 272 -165 305 -336 27 -137 -16
-253 -138 -373 -94 -91 -195 -150 -346 -202 -344 -116 -606 -60 -753 161 -26
39 -32 55 -23 61 6 4 106 42 221 84 l208 78 34 -34 c96 -96 239 -95 322 4 54
64 8 148 -94 169 -46 9 -91 8 -243 -7 -215 -20 -308 -14 -400 28 -140 64 -228
210 -228 377 0 120 46 216 152 317 182 175 488 271 693 219z"/>
<path d="M1310 2445 l0 -545 163 0 c235 0 330 30 425 135 93 103 137 239 136
425 -1 188 -38 302 -132 402 -94 101 -182 128 -419 128 l-173 0 0 -545z"/>
</g>
</svg>
